<svg xmlns="http://www.w3.org/2000/svg" viewBox="0 0 60 60" width="60" height="60">
  <!-- Background circle -->
  <circle cx="30" cy="30" r="28" fill="white" stroke="#e2e8f0" stroke-width="2"/>
  
  <!-- Globe/Earth -->
  <circle cx="30" cy="30" r="20" fill="#e3f2fd"/>
  <path d="M 10 30 Q 30 15 50 30 Q 30 45 10 30" fill="#1976d2"/>
  <path d="M 10 30 Q 30 45 50 30" fill="#42a5f5"/>
  
  <!-- Grid lines on globe -->
  <path d="M 10 30 L 50 30" stroke="white" stroke-width="1" opacity="0.7"/>
  <path d="M 30 10 L 30 50" stroke="white" stroke-width="1" opacity="0.7"/>
  <path d="M 20 20 Q 30 10 40 20" stroke="white" stroke-width="0.5" opacity="0.5" fill="none"/>
  <path d="M 20 40 Q 30 50 40 40" stroke="white" stroke-width="0.5" opacity="0.5" fill="none"/>
  
  <!-- Magnifying glass -->
  <circle cx="38" cy="38" r="8" fill="none" stroke="#1976d2" stroke-width="2"/>
  <line x1="44" y1="44" x2="50" y2="50" stroke="#1976d2" stroke-width="2" stroke-linecap="round"/>
  
  <!-- Eye inside magnifying glass -->
  <circle cx="38" cy="38" r="4" fill="white"/>
  <circle cx="38" cy="38" r="3" fill="#1976d2"/>
  <circle cx="38" cy="38" r="1.5" fill="white"/>
  
  <!-- Red curved lines -->
  <path d="M 8 18 Q 22 12 36 18" stroke="#d32f2f" stroke-width="2" fill="none" stroke-linecap="round"/>
  <path d="M 8 42 Q 22 48 36 42" stroke="#d32f2f" stroke-width="2" fill="none" stroke-linecap="round"/>
  
  <!-- Red dots at ends -->
  <circle cx="8" cy="18" r="2" fill="#d32f2f"/>
  <circle cx="36" cy="18" r="2" fill="#d32f2f"/>
  <circle cx="8" cy="42" r="2" fill="#d32f2f"/>
  <circle cx="36" cy="42" r="2" fill="#d32f2f"/>
</svg>